<?xml version="1.0" encoding="UTF-8" standalone="no"?>
<!DOCTYPE svg PUBLIC "-//W3C//DTD SVG 1.1//EN"
 "http://www.w3.org/Graphics/SVG/1.1/DTD/svg11.dtd">
<!-- Generated by graphviz version 2.38.0 (20140413.2041)
 -->
<!-- Title: snakemake_dag Pages: 1 -->
<svg width="750pt" height="620pt"
 viewBox="0.00 0.00 750.00 620.00" xmlns="http://www.w3.org/2000/svg" xmlns:xlink="http://www.w3.org/1999/xlink">
<g id="graph0" class="graph" transform="scale(1 1) rotate(0) translate(4 616)">
<title>snakemake_dag</title>
<polygon fill="white" stroke="none" points="-4,4 -4,-616 746,-616 746,4 -4,4"/>
<!-- 0 -->
<g id="node1" class="node"><title>0</title>
<path fill="none" stroke="#569ad8" stroke-width="2" d="M408,-36C408,-36 378,-36 378,-36 372,-36 366,-30 366,-24 366,-24 366,-12 366,-12 366,-6 372,-0 378,-0 378,-0 408,-0 408,-0 414,-0 420,-6 420,-12 420,-12 420,-24 420,-24 420,-30 414,-36 408,-36"/>
<text text-anchor="middle" x="393" y="-15.5" font-family="sans" font-size="10.00">all</text>
</g>
<!-- 1 -->
<g id="node2" class="node"><title>1</title>
<path fill="none" stroke="#d8bc56" stroke-width="2" d="M356,-108C356,-108 312,-108 312,-108 306,-108 300,-102 300,-96 300,-96 300,-84 300,-84 300,-78 306,-72 312,-72 312,-72 356,-72 356,-72 362,-72 368,-78 368,-84 368,-84 368,-96 368,-96 368,-102 362,-108 356,-108"/>
<text text-anchor="middle" x="334" y="-87.5" font-family="sans" font-size="10.00">VariantFilter</text>
</g>
<!-- 1&#45;&gt;0 -->
<g id="edge1" class="edge"><title>1&#45;&gt;0</title>
<path fill="none" stroke="grey" stroke-width="2" d="M348.584,-71.6966C355.658,-63.3046 364.283,-53.0705 372.045,-43.8613"/>
<polygon fill="grey" stroke="grey" stroke-width="2" points="374.815,-46.0063 378.583,-36.1043 369.463,-41.495 374.815,-46.0063"/>
</g>
<!-- 2 -->
<g id="node3" class="node"><title>2</title>
<path fill="none" stroke="#56c1d8" stroke-width="2" d="M467,-108C467,-108 437,-108 437,-108 431,-108 425,-102 425,-96 425,-96 425,-84 425,-84 425,-78 431,-72 437,-72 437,-72 467,-72 467,-72 473,-72 479,-78 479,-84 479,-84 479,-96 479,-96 479,-102 473,-108 467,-108"/>
<text text-anchor="middle" x="452" y="-87.5" font-family="sans" font-size="10.00">multiQc</text>
</g>
<!-- 2&#45;&gt;0 -->
<g id="edge2" class="edge"><title>2&#45;&gt;0</title>
<path fill="none" stroke="grey" stroke-width="2" d="M437.416,-71.6966C430.342,-63.3046 421.717,-53.0705 413.955,-43.8613"/>
<polygon fill="grey" stroke="grey" stroke-width="2" points="416.537,-41.495 407.417,-36.1043 411.185,-46.0063 416.537,-41.495"/>
</g>
<!-- 3 -->
<g id="node4" class="node"><title>3</title>
<path fill="none" stroke="#d85656" stroke-width="2" d="M314,-180C314,-180 276,-180 276,-180 270,-180 264,-174 264,-168 264,-168 264,-156 264,-156 264,-150 270,-144 276,-144 276,-144 314,-144 314,-144 320,-144 326,-150 326,-156 326,-156 326,-168 326,-168 326,-174 320,-180 314,-180"/>
<text text-anchor="middle" x="295" y="-159.5" font-family="sans" font-size="10.00">Freebayes</text>
</g>
<!-- 3&#45;&gt;1 -->
<g id="edge3" class="edge"><title>3&#45;&gt;1</title>
<path fill="none" stroke="grey" stroke-width="2" d="M304.64,-143.697C309.127,-135.644 314.559,-125.894 319.524,-116.982"/>
<polygon fill="grey" stroke="grey" stroke-width="2" points="322.661,-118.544 324.47,-108.104 316.546,-115.137 322.661,-118.544"/>
</g>
<!-- 4 -->
<g id="node5" class="node"><title>4</title>
<path fill="none" stroke="#d89c56" stroke-width="2" d="M400,-540C400,-540 338,-540 338,-540 332,-540 326,-534 326,-528 326,-528 326,-516 326,-516 326,-510 332,-504 338,-504 338,-504 400,-504 400,-504 406,-504 412,-510 412,-516 412,-516 412,-528 412,-528 412,-534 406,-540 400,-540"/>
<text text-anchor="middle" x="369" y="-519.5" font-family="sans" font-size="10.00">SalmonMapping</text>
</g>
<!-- 4&#45;&gt;2 -->
<g id="edge4" class="edge"><title>4&#45;&gt;2</title>
<path fill="none" stroke="grey" stroke-width="2" d="M412.075,-506.803C455.451,-492.382 516.592,-471.66 521,-468 556.074,-438.876 572,-424.59 572,-379 572,-379 572,-379 572,-233 572,-180.333 523.248,-137.115 487.892,-112.698"/>
<polygon fill="grey" stroke="grey" stroke-width="2" points="489.487,-109.554 479.23,-106.901 485.594,-115.371 489.487,-109.554"/>
</g>
<!-- 5 -->
<g id="node6" class="node"><title>5</title>
<path fill="none" stroke="#d89c56" stroke-width="2" d="M640,-540C640,-540 578,-540 578,-540 572,-540 566,-534 566,-528 566,-528 566,-516 566,-516 566,-510 572,-504 578,-504 578,-504 640,-504 640,-504 646,-504 652,-510 652,-516 652,-516 652,-528 652,-528 652,-534 646,-540 640,-540"/>
<text text-anchor="middle" x="609" y="-519.5" font-family="sans" font-size="10.00">SalmonMapping</text>
</g>
<!-- 5&#45;&gt;2 -->
<g id="edge5" class="edge"><title>5&#45;&gt;2</title>
<path fill="none" stroke="grey" stroke-width="2" d="M609.198,-503.951C609.489,-477.292 610,-424.116 610,-379 610,-379 610,-379 610,-233 610,-186.962 590.668,-175.401 557,-144 537.446,-125.763 510.424,-112.316 488.69,-103.53"/>
<polygon fill="grey" stroke="grey" stroke-width="2" points="489.711,-100.172 479.122,-99.8206 487.181,-106.699 489.711,-100.172"/>
</g>
<!-- 6 -->
<g id="node7" class="node"><title>6</title>
<path fill="none" stroke="#68d856" stroke-width="2" d="M265.5,-468C265.5,-468 182.5,-468 182.5,-468 176.5,-468 170.5,-462 170.5,-456 170.5,-456 170.5,-444 170.5,-444 170.5,-438 176.5,-432 182.5,-432 182.5,-432 265.5,-432 265.5,-432 271.5,-432 277.5,-438 277.5,-444 277.5,-444 277.5,-456 277.5,-456 277.5,-462 271.5,-468 265.5,-468"/>
<text text-anchor="middle" x="224" y="-447.5" font-family="sans" font-size="10.00">STARMapping2Pass</text>
</g>
<!-- 6&#45;&gt;2 -->
<g id="edge6" class="edge"><title>6&#45;&gt;2</title>
<path fill="none" stroke="grey" stroke-width="2" d="M256.469,-431.935C294.974,-409.086 354,-364.656 354,-307 354,-307 354,-307 354,-233 354,-184.538 393.142,-140.615 421.952,-114.849"/>
<polygon fill="grey" stroke="grey" stroke-width="2" points="424.501,-117.271 429.762,-108.075 419.915,-111.983 424.501,-117.271"/>
</g>
<!-- 24 -->
<g id="node25" class="node"><title>24</title>
<path fill="none" stroke="#56d86b" stroke-width="2" d="M240,-396C240,-396 202,-396 202,-396 196,-396 190,-390 190,-384 190,-384 190,-372 190,-372 190,-366 196,-360 202,-360 202,-360 240,-360 240,-360 246,-360 252,-366 252,-372 252,-372 252,-384 252,-384 252,-390 246,-396 240,-396"/>
<text text-anchor="middle" x="221" y="-375.5" font-family="sans" font-size="10.00">replace_rg</text>
</g>
<!-- 6&#45;&gt;24 -->
<g id="edge46" class="edge"><title>6&#45;&gt;24</title>
<path fill="none" stroke="grey" stroke-width="2" d="M223.258,-431.697C222.928,-423.983 222.531,-414.712 222.162,-406.112"/>
<polygon fill="grey" stroke="grey" stroke-width="2" points="225.658,-405.945 221.733,-396.104 218.665,-406.245 225.658,-405.945"/>
</g>
<!-- 7 -->
<g id="node8" class="node"><title>7</title>
<path fill="none" stroke="#68d856" stroke-width="2" d="M500.5,-468C500.5,-468 417.5,-468 417.5,-468 411.5,-468 405.5,-462 405.5,-456 405.5,-456 405.5,-444 405.5,-444 405.5,-438 411.5,-432 417.5,-432 417.5,-432 500.5,-432 500.5,-432 506.5,-432 512.5,-438 512.5,-444 512.5,-444 512.5,-456 512.5,-456 512.5,-462 506.5,-468 500.5,-468"/>
<text text-anchor="middle" x="459" y="-447.5" font-family="sans" font-size="10.00">STARMapping2Pass</text>
</g>
<!-- 7&#45;&gt;2 -->
<g id="edge7" class="edge"><title>7&#45;&gt;2</title>
<path fill="none" stroke="grey" stroke-width="2" d="M475.274,-431.733C497.332,-406.446 534,-356.905 534,-307 534,-307 534,-307 534,-233 534,-186.88 501.16,-142.264 477.045,-115.719"/>
<polygon fill="grey" stroke="grey" stroke-width="2" points="479.587,-113.312 470.198,-108.402 474.475,-118.095 479.587,-113.312"/>
</g>
<!-- 25 -->
<g id="node26" class="node"><title>25</title>
<path fill="none" stroke="#56d86b" stroke-width="2" d="M474,-396C474,-396 436,-396 436,-396 430,-396 424,-390 424,-384 424,-384 424,-372 424,-372 424,-366 430,-360 436,-360 436,-360 474,-360 474,-360 480,-360 486,-366 486,-372 486,-372 486,-384 486,-384 486,-390 480,-396 474,-396"/>
<text text-anchor="middle" x="455" y="-375.5" font-family="sans" font-size="10.00">replace_rg</text>
</g>
<!-- 7&#45;&gt;25 -->
<g id="edge47" class="edge"><title>7&#45;&gt;25</title>
<path fill="none" stroke="grey" stroke-width="2" d="M458.011,-431.697C457.57,-423.983 457.041,-414.712 456.549,-406.112"/>
<polygon fill="grey" stroke="grey" stroke-width="2" points="460.042,-405.888 455.977,-396.104 453.054,-406.288 460.042,-405.888"/>
</g>
<!-- 8 -->
<g id="node9" class="node"><title>8</title>
<path fill="none" stroke="#88d856" stroke-width="2" d="M42,-324C42,-324 12,-324 12,-324 6,-324 0,-318 0,-312 0,-312 0,-300 0,-300 0,-294 6,-288 12,-288 12,-288 42,-288 42,-288 48,-288 54,-294 54,-300 54,-300 54,-312 54,-312 54,-318 48,-324 42,-324"/>
<text text-anchor="middle" x="27" y="-309" font-family="sans" font-size="10.00">FastQC</text>
<text text-anchor="middle" x="27" y="-298" font-family="sans" font-size="10.00">read: 1</text>
</g>
<!-- 8&#45;&gt;2 -->
<g id="edge8" class="edge"><title>8&#45;&gt;2</title>
<path fill="none" stroke="grey" stroke-width="2" d="M27.4274,-287.882C28.5598,-269.147 32.3932,-238.752 45,-216 67.5512,-175.301 79.0838,-164.198 121,-144 224.507,-94.1227 263.986,-128.717 377,-108 389.414,-105.724 402.887,-102.811 414.943,-100.042"/>
<polygon fill="grey" stroke="grey" stroke-width="2" points="415.742,-103.45 424.684,-97.7664 414.15,-96.633 415.742,-103.45"/>
</g>
<!-- 9 -->
<g id="node10" class="node"><title>9</title>
<path fill="none" stroke="#88d856" stroke-width="2" d="M96,-252C96,-252 66,-252 66,-252 60,-252 54,-246 54,-240 54,-240 54,-228 54,-228 54,-222 60,-216 66,-216 66,-216 96,-216 96,-216 102,-216 108,-222 108,-228 108,-228 108,-240 108,-240 108,-246 102,-252 96,-252"/>
<text text-anchor="middle" x="81" y="-237" font-family="sans" font-size="10.00">FastQC</text>
<text text-anchor="middle" x="81" y="-226" font-family="sans" font-size="10.00">read: 2</text>
</g>
<!-- 9&#45;&gt;2 -->
<g id="edge9" class="edge"><title>9&#45;&gt;2</title>
<path fill="none" stroke="grey" stroke-width="2" d="M93.1332,-215.78C108.669,-195.154 137.608,-161.232 171,-144 253.594,-101.377 285.872,-126.279 377,-108 389.477,-105.497 403.059,-102.502 415.195,-99.7272"/>
<polygon fill="grey" stroke="grey" stroke-width="2" points="416.036,-103.125 424.992,-97.4642 414.461,-96.3046 416.036,-103.125"/>
</g>
<!-- 10 -->
<g id="node11" class="node"><title>10</title>
<path fill="none" stroke="#88d856" stroke-width="2" d="M680,-468C680,-468 650,-468 650,-468 644,-468 638,-462 638,-456 638,-456 638,-444 638,-444 638,-438 644,-432 650,-432 650,-432 680,-432 680,-432 686,-432 692,-438 692,-444 692,-444 692,-456 692,-456 692,-462 686,-468 680,-468"/>
<text text-anchor="middle" x="665" y="-453" font-family="sans" font-size="10.00">FastQC</text>
<text text-anchor="middle" x="665" y="-442" font-family="sans" font-size="10.00">read: 1</text>
</g>
<!-- 10&#45;&gt;2 -->
<g id="edge10" class="edge"><title>10&#45;&gt;2</title>
<path fill="none" stroke="grey" stroke-width="2" d="M663.222,-431.973C660.599,-405.343 656,-352.205 656,-307 656,-307 656,-307 656,-233 656,-190.965 654.402,-173.028 624,-144 587.333,-108.991 528.056,-97.0689 489.556,-93.0322"/>
<polygon fill="grey" stroke="grey" stroke-width="2" points="489.562,-89.5182 479.284,-92.0901 488.923,-96.4889 489.562,-89.5182"/>
</g>
<!-- 11 -->
<g id="node12" class="node"><title>11</title>
<path fill="none" stroke="#88d856" stroke-width="2" d="M730,-396C730,-396 700,-396 700,-396 694,-396 688,-390 688,-384 688,-384 688,-372 688,-372 688,-366 694,-360 700,-360 700,-360 730,-360 730,-360 736,-360 742,-366 742,-372 742,-372 742,-384 742,-384 742,-390 736,-396 730,-396"/>
<text text-anchor="middle" x="715" y="-381" font-family="sans" font-size="10.00">FastQC</text>
<text text-anchor="middle" x="715" y="-370" font-family="sans" font-size="10.00">read: 2</text>
</g>
<!-- 11&#45;&gt;2 -->
<g id="edge11" class="edge"><title>11&#45;&gt;2</title>
<path fill="none" stroke="grey" stroke-width="2" d="M717.328,-359.909C722.107,-317.218 728.137,-204.979 670,-144 645.445,-118.244 544.881,-102.254 489.322,-95.2106"/>
<polygon fill="grey" stroke="grey" stroke-width="2" points="489.527,-91.7094 479.174,-93.96 488.67,-98.6569 489.527,-91.7094"/>
</g>
<!-- 12 -->
<g id="node13" class="node"><title>12</title>
<path fill="none" stroke="#d87556" stroke-width="2" d="M222,-180C222,-180 192,-180 192,-180 186,-180 180,-174 180,-168 180,-168 180,-156 180,-156 180,-150 186,-144 192,-144 192,-144 222,-144 222,-144 228,-144 234,-150 234,-156 234,-156 234,-168 234,-168 234,-174 228,-180 222,-180"/>
<text text-anchor="middle" x="207" y="-159.5" font-family="sans" font-size="10.00">RSeqC</text>
</g>
<!-- 12&#45;&gt;2 -->
<g id="edge12" class="edge"><title>12&#45;&gt;2</title>
<path fill="none" stroke="grey" stroke-width="2" d="M234.039,-151.011C240.846,-148.61 248.162,-146.127 255,-144 310.222,-126.821 375.145,-109.995 414.928,-100.06"/>
<polygon fill="grey" stroke="grey" stroke-width="2" points="415.861,-103.435 424.723,-97.6265 414.174,-96.641 415.861,-103.435"/>
</g>
<!-- 13 -->
<g id="node14" class="node"><title>13</title>
<path fill="none" stroke="#d87556" stroke-width="2" d="M467,-180C467,-180 437,-180 437,-180 431,-180 425,-174 425,-168 425,-168 425,-156 425,-156 425,-150 431,-144 437,-144 437,-144 467,-144 467,-144 473,-144 479,-150 479,-156 479,-156 479,-168 479,-168 479,-174 473,-180 467,-180"/>
<text text-anchor="middle" x="452" y="-159.5" font-family="sans" font-size="10.00">RSeqC</text>
</g>
<!-- 13&#45;&gt;2 -->
<g id="edge13" class="edge"><title>13&#45;&gt;2</title>
<path fill="none" stroke="grey" stroke-width="2" d="M452,-143.697C452,-135.983 452,-126.712 452,-118.112"/>
<polygon fill="grey" stroke="grey" stroke-width="2" points="455.5,-118.104 452,-108.104 448.5,-118.104 455.5,-118.104"/>
</g>
<!-- 14 -->
<g id="node15" class="node"><title>14</title>
<path fill="none" stroke="#56d8d0" stroke-width="2" d="M251,-324C251,-324 187,-324 187,-324 181,-324 175,-318 175,-312 175,-312 175,-300 175,-300 175,-294 181,-288 187,-288 187,-288 251,-288 251,-288 257,-288 263,-294 263,-300 263,-300 263,-312 263,-312 263,-318 257,-324 251,-324"/>
<text text-anchor="middle" x="219" y="-303.5" font-family="sans" font-size="10.00">mark_duplicates</text>
</g>
<!-- 14&#45;&gt;3 -->
<g id="edge14" class="edge"><title>14&#45;&gt;3</title>
<path fill="none" stroke="grey" stroke-width="2" d="M233.48,-287.575C241.362,-277.568 250.92,-264.533 258,-252 269.266,-232.055 279.064,-207.991 285.741,-189.917"/>
<polygon fill="grey" stroke="grey" stroke-width="2" points="289.109,-190.895 289.21,-180.3 282.525,-188.52 289.109,-190.895"/>
</g>
<!-- 14&#45;&gt;12 -->
<g id="edge34" class="edge"><title>14&#45;&gt;12</title>
<path fill="none" stroke="grey" stroke-width="2" d="M188.231,-287.907C175.456,-279.021 161.999,-266.883 155,-252 148.191,-237.521 148.948,-230.811 155,-216 159.488,-205.017 167.47,-195.081 175.854,-186.858"/>
<polygon fill="grey" stroke="grey" stroke-width="2" points="178.235,-189.424 183.248,-180.09 173.508,-184.261 178.235,-189.424"/>
</g>
<!-- 16 -->
<g id="node17" class="node"><title>16</title>
<path fill="none" stroke="#567bd8" stroke-width="2" d="M237.5,-252C237.5,-252 176.5,-252 176.5,-252 170.5,-252 164.5,-246 164.5,-240 164.5,-240 164.5,-228 164.5,-228 164.5,-222 170.5,-216 176.5,-216 176.5,-216 237.5,-216 237.5,-216 243.5,-216 249.5,-222 249.5,-228 249.5,-228 249.5,-240 249.5,-240 249.5,-246 243.5,-252 237.5,-252"/>
<text text-anchor="middle" x="207" y="-231.5" font-family="sans" font-size="10.00">samtools_index</text>
</g>
<!-- 14&#45;&gt;16 -->
<g id="edge40" class="edge"><title>14&#45;&gt;16</title>
<path fill="none" stroke="grey" stroke-width="2" d="M216.034,-287.697C214.711,-279.983 213.122,-270.712 211.648,-262.112"/>
<polygon fill="grey" stroke="grey" stroke-width="2" points="215.072,-261.369 209.932,-252.104 208.172,-262.552 215.072,-261.369"/>
</g>
<!-- 15 -->
<g id="node16" class="node"><title>15</title>
<path fill="none" stroke="#56d8d0" stroke-width="2" d="M476,-324C476,-324 412,-324 412,-324 406,-324 400,-318 400,-312 400,-312 400,-300 400,-300 400,-294 406,-288 412,-288 412,-288 476,-288 476,-288 482,-288 488,-294 488,-300 488,-300 488,-312 488,-312 488,-318 482,-324 476,-324"/>
<text text-anchor="middle" x="444" y="-303.5" font-family="sans" font-size="10.00">mark_duplicates</text>
</g>
<!-- 15&#45;&gt;3 -->
<g id="edge15" class="edge"><title>15&#45;&gt;3</title>
<path fill="none" stroke="grey" stroke-width="2" d="M418.343,-287.822C404.377,-277.995 387.118,-265.053 373,-252 351.414,-232.043 329.591,-206.591 314.539,-188.022"/>
<polygon fill="grey" stroke="grey" stroke-width="2" points="317.11,-185.633 308.125,-180.019 311.648,-190.011 317.11,-185.633"/>
</g>
<!-- 15&#45;&gt;13 -->
<g id="edge36" class="edge"><title>15&#45;&gt;13</title>
<path fill="none" stroke="grey" stroke-width="2" d="M457.564,-287.972C464.558,-278.09 472.367,-265.047 476,-252 480.292,-236.586 479.376,-231.64 476,-216 474.039,-206.916 470.388,-197.517 466.515,-189.201"/>
<polygon fill="grey" stroke="grey" stroke-width="2" points="469.538,-187.42 461.954,-180.022 463.269,-190.534 469.538,-187.42"/>
</g>
<!-- 17 -->
<g id="node18" class="node"><title>17</title>
<path fill="none" stroke="#567bd8" stroke-width="2" d="M455.5,-252C455.5,-252 394.5,-252 394.5,-252 388.5,-252 382.5,-246 382.5,-240 382.5,-240 382.5,-228 382.5,-228 382.5,-222 388.5,-216 394.5,-216 394.5,-216 455.5,-216 455.5,-216 461.5,-216 467.5,-222 467.5,-228 467.5,-228 467.5,-240 467.5,-240 467.5,-246 461.5,-252 455.5,-252"/>
<text text-anchor="middle" x="425" y="-231.5" font-family="sans" font-size="10.00">samtools_index</text>
</g>
<!-- 15&#45;&gt;17 -->
<g id="edge41" class="edge"><title>15&#45;&gt;17</title>
<path fill="none" stroke="grey" stroke-width="2" d="M439.303,-287.697C437.187,-279.898 434.638,-270.509 432.282,-261.829"/>
<polygon fill="grey" stroke="grey" stroke-width="2" points="435.64,-260.838 429.643,-252.104 428.884,-262.672 435.64,-260.838"/>
</g>
<!-- 16&#45;&gt;3 -->
<g id="edge16" class="edge"><title>16&#45;&gt;3</title>
<path fill="none" stroke="grey" stroke-width="2" d="M228.753,-215.697C239.836,-206.881 253.474,-196.032 265.49,-186.474"/>
<polygon fill="grey" stroke="grey" stroke-width="2" points="267.85,-189.069 273.497,-180.104 263.493,-183.59 267.85,-189.069"/>
</g>
<!-- 16&#45;&gt;12 -->
<g id="edge35" class="edge"><title>16&#45;&gt;12</title>
<path fill="none" stroke="grey" stroke-width="2" d="M207,-215.697C207,-207.983 207,-198.712 207,-190.112"/>
<polygon fill="grey" stroke="grey" stroke-width="2" points="210.5,-190.104 207,-180.104 203.5,-190.104 210.5,-190.104"/>
</g>
<!-- 17&#45;&gt;3 -->
<g id="edge17" class="edge"><title>17&#45;&gt;3</title>
<path fill="none" stroke="grey" stroke-width="2" d="M393.198,-215.876C375.628,-206.415 353.633,-194.572 334.916,-184.493"/>
<polygon fill="grey" stroke="grey" stroke-width="2" points="336.489,-181.365 326.025,-179.706 333.17,-187.528 336.489,-181.365"/>
</g>
<!-- 17&#45;&gt;13 -->
<g id="edge37" class="edge"><title>17&#45;&gt;13</title>
<path fill="none" stroke="grey" stroke-width="2" d="M431.674,-215.697C434.715,-207.813 438.383,-198.304 441.761,-189.546"/>
<polygon fill="grey" stroke="grey" stroke-width="2" points="445.069,-190.694 445.403,-180.104 438.538,-188.175 445.069,-190.694"/>
</g>
<!-- 18 -->
<g id="node19" class="node"><title>18</title>
<path fill="none" stroke="#ced856" stroke-width="2" d="M150.5,-612C150.5,-612 97.5,-612 97.5,-612 91.5,-612 85.5,-606 85.5,-600 85.5,-600 85.5,-588 85.5,-588 85.5,-582 91.5,-576 97.5,-576 97.5,-576 150.5,-576 150.5,-576 156.5,-576 162.5,-582 162.5,-588 162.5,-588 162.5,-600 162.5,-600 162.5,-606 156.5,-612 150.5,-612"/>
<text text-anchor="middle" x="124" y="-597" font-family="sans" font-size="10.00">trimming</text>
<text text-anchor="middle" x="124" y="-586" font-family="sans" font-size="10.00">sample: A1da</text>
</g>
<!-- 18&#45;&gt;4 -->
<g id="edge18" class="edge"><title>18&#45;&gt;4</title>
<path fill="none" stroke="grey" stroke-width="2" d="M162.551,-581.985C203.855,-570.184 269.694,-551.373 315.889,-538.175"/>
<polygon fill="grey" stroke="grey" stroke-width="2" points="317.069,-541.478 325.723,-535.365 315.146,-534.747 317.069,-541.478"/>
</g>
<!-- 18&#45;&gt;6 -->
<g id="edge22" class="edge"><title>18&#45;&gt;6</title>
<path fill="none" stroke="grey" stroke-width="2" d="M131.791,-575.803C140.562,-557.268 155.848,-527.293 173,-504 180.379,-493.979 189.531,-483.907 198.036,-475.276"/>
<polygon fill="grey" stroke="grey" stroke-width="2" points="200.641,-477.622 205.283,-468.098 195.715,-472.648 200.641,-477.622"/>
</g>
<!-- 18&#45;&gt;8 -->
<g id="edge30" class="edge"><title>18&#45;&gt;8</title>
<path fill="none" stroke="grey" stroke-width="2" d="M101.464,-575.943C90.5975,-566.524 78.3549,-553.922 71,-540 35.2045,-472.242 28.2015,-379.826 27.0449,-334.439"/>
<polygon fill="grey" stroke="grey" stroke-width="2" points="30.5404,-334.149 26.8652,-324.212 23.5415,-334.272 30.5404,-334.149"/>
</g>
<!-- 18&#45;&gt;9 -->
<g id="edge31" class="edge"><title>18&#45;&gt;9</title>
<path fill="none" stroke="grey" stroke-width="2" d="M116.108,-575.928C104.712,-549.671 85,-497.53 85,-451 85,-451 85,-451 85,-377 85,-336.98 83.3929,-290.641 82.216,-262.073"/>
<polygon fill="grey" stroke="grey" stroke-width="2" points="85.7114,-261.887 81.7903,-252.045 78.7177,-262.184 85.7114,-261.887"/>
</g>
<!-- 22 -->
<g id="node23" class="node"><title>22</title>
<path fill="none" stroke="#56d8a9" stroke-width="2" d="M258,-540C258,-540 202,-540 202,-540 196,-540 190,-534 190,-528 190,-528 190,-516 190,-516 190,-510 196,-504 202,-504 202,-504 258,-504 258,-504 264,-504 270,-510 270,-516 270,-516 270,-528 270,-528 270,-534 264,-540 258,-540"/>
<text text-anchor="middle" x="230" y="-519.5" font-family="sans" font-size="10.00">STARMapping</text>
</g>
<!-- 18&#45;&gt;22 -->
<g id="edge42" class="edge"><title>18&#45;&gt;22</title>
<path fill="none" stroke="grey" stroke-width="2" d="M149.931,-575.876C163.662,-566.808 180.706,-555.552 195.536,-545.759"/>
<polygon fill="grey" stroke="grey" stroke-width="2" points="197.554,-548.621 203.97,-540.19 193.696,-542.78 197.554,-548.621"/>
</g>
<!-- 19 -->
<g id="node20" class="node"><title>19</title>
<path fill="none" stroke="#56d88a" stroke-width="2" d="M467,-612C467,-612 417,-612 417,-612 411,-612 405,-606 405,-600 405,-600 405,-588 405,-588 405,-582 411,-576 417,-576 417,-576 467,-576 467,-576 473,-576 479,-582 479,-588 479,-588 479,-600 479,-600 479,-606 473,-612 467,-612"/>
<text text-anchor="middle" x="442" y="-591.5" font-family="sans" font-size="10.00">SalmonIndex</text>
</g>
<!-- 19&#45;&gt;4 -->
<g id="edge19" class="edge"><title>19&#45;&gt;4</title>
<path fill="none" stroke="grey" stroke-width="2" d="M423.955,-575.697C414.938,-567.05 403.882,-556.449 394.057,-547.027"/>
<polygon fill="grey" stroke="grey" stroke-width="2" points="396.478,-544.499 386.837,-540.104 391.633,-549.552 396.478,-544.499"/>
</g>
<!-- 19&#45;&gt;5 -->
<g id="edge21" class="edge"><title>19&#45;&gt;5</title>
<path fill="none" stroke="grey" stroke-width="2" d="M479.063,-577.465C502.495,-567.643 533.081,-554.823 558.691,-544.088"/>
<polygon fill="grey" stroke="grey" stroke-width="2" points="560.368,-547.18 568.237,-540.086 557.662,-540.724 560.368,-547.18"/>
</g>
<!-- 20 -->
<g id="node21" class="node"><title>20</title>
<path fill="none" stroke="#ced856" stroke-width="2" d="M635.5,-612C635.5,-612 582.5,-612 582.5,-612 576.5,-612 570.5,-606 570.5,-600 570.5,-600 570.5,-588 570.5,-588 570.5,-582 576.5,-576 582.5,-576 582.5,-576 635.5,-576 635.5,-576 641.5,-576 647.5,-582 647.5,-588 647.5,-588 647.5,-600 647.5,-600 647.5,-606 641.5,-612 635.5,-612"/>
<text text-anchor="middle" x="609" y="-597" font-family="sans" font-size="10.00">trimming</text>
<text text-anchor="middle" x="609" y="-586" font-family="sans" font-size="10.00">sample: A2da</text>
</g>
<!-- 20&#45;&gt;5 -->
<g id="edge20" class="edge"><title>20&#45;&gt;5</title>
<path fill="none" stroke="grey" stroke-width="2" d="M609,-575.697C609,-567.983 609,-558.712 609,-550.112"/>
<polygon fill="grey" stroke="grey" stroke-width="2" points="612.5,-550.104 609,-540.104 605.5,-550.104 612.5,-550.104"/>
</g>
<!-- 20&#45;&gt;7 -->
<g id="edge26" class="edge"><title>20&#45;&gt;7</title>
<path fill="none" stroke="grey" stroke-width="2" d="M592.357,-575.981C574.499,-557.853 545.167,-528.459 519,-504 508.562,-494.244 496.833,-483.777 486.532,-474.743"/>
<polygon fill="grey" stroke="grey" stroke-width="2" points="488.813,-472.089 478.978,-468.15 484.21,-477.363 488.813,-472.089"/>
</g>
<!-- 20&#45;&gt;10 -->
<g id="edge32" class="edge"><title>20&#45;&gt;10</title>
<path fill="none" stroke="grey" stroke-width="2" d="M632.479,-575.795C643.213,-566.507 654.88,-554.066 661,-540 669.46,-520.556 670.006,-496.414 668.688,-478.182"/>
<polygon fill="grey" stroke="grey" stroke-width="2" points="672.171,-477.835 667.743,-468.21 665.202,-478.495 672.171,-477.835"/>
</g>
<!-- 20&#45;&gt;11 -->
<g id="edge33" class="edge"><title>20&#45;&gt;11</title>
<path fill="none" stroke="grey" stroke-width="2" d="M638.95,-575.882C652.554,-566.774 667.84,-554.46 678,-540 706.418,-499.556 713.342,-440.597 714.833,-406.383"/>
<polygon fill="grey" stroke="grey" stroke-width="2" points="718.337,-406.302 715.146,-396.199 711.34,-406.086 718.337,-406.302"/>
</g>
<!-- 23 -->
<g id="node24" class="node"><title>23</title>
<path fill="none" stroke="#56d8a9" stroke-width="2" d="M498,-540C498,-540 442,-540 442,-540 436,-540 430,-534 430,-528 430,-528 430,-516 430,-516 430,-510 436,-504 442,-504 442,-504 498,-504 498,-504 504,-504 510,-510 510,-516 510,-516 510,-528 510,-528 510,-534 504,-540 498,-540"/>
<text text-anchor="middle" x="470" y="-519.5" font-family="sans" font-size="10.00">STARMapping</text>
</g>
<!-- 20&#45;&gt;23 -->
<g id="edge44" class="edge"><title>20&#45;&gt;23</title>
<path fill="none" stroke="grey" stroke-width="2" d="M574.997,-575.876C556.402,-566.512 533.173,-554.814 513.294,-544.803"/>
<polygon fill="grey" stroke="grey" stroke-width="2" points="514.64,-541.562 504.134,-540.19 511.491,-547.814 514.64,-541.562"/>
</g>
<!-- 21 -->
<g id="node22" class="node"><title>21</title>
<path fill="none" stroke="#afd856" stroke-width="2" d="M285.5,-612C285.5,-612 242.5,-612 242.5,-612 236.5,-612 230.5,-606 230.5,-600 230.5,-600 230.5,-588 230.5,-588 230.5,-582 236.5,-576 242.5,-576 242.5,-576 285.5,-576 285.5,-576 291.5,-576 297.5,-582 297.5,-588 297.5,-588 297.5,-600 297.5,-600 297.5,-606 291.5,-612 285.5,-612"/>
<text text-anchor="middle" x="264" y="-591.5" font-family="sans" font-size="10.00">STARIndex</text>
</g>
<!-- 21&#45;&gt;6 -->
<g id="edge23" class="edge"><title>21&#45;&gt;6</title>
<path fill="none" stroke="grey" stroke-width="2" d="M230.387,-580.894C212.266,-572.442 191.516,-559.192 181,-540 169.416,-518.858 183.495,-494.118 198.559,-476.096"/>
<polygon fill="grey" stroke="grey" stroke-width="2" points="201.437,-478.126 205.462,-468.325 196.204,-473.478 201.437,-478.126"/>
</g>
<!-- 21&#45;&gt;7 -->
<g id="edge27" class="edge"><title>21&#45;&gt;7</title>
<path fill="none" stroke="grey" stroke-width="2" d="M270.118,-575.897C278.042,-556.023 293.666,-523.473 317,-504 339.393,-485.312 369.014,-472.871 395.407,-464.771"/>
<polygon fill="grey" stroke="grey" stroke-width="2" points="396.722,-468.034 405.343,-461.875 394.763,-461.313 396.722,-468.034"/>
</g>
<!-- 21&#45;&gt;22 -->
<g id="edge43" class="edge"><title>21&#45;&gt;22</title>
<path fill="none" stroke="grey" stroke-width="2" d="M255.596,-575.697C251.725,-567.728 247.048,-558.1 242.757,-549.264"/>
<polygon fill="grey" stroke="grey" stroke-width="2" points="245.825,-547.57 238.308,-540.104 239.529,-550.629 245.825,-547.57"/>
</g>
<!-- 21&#45;&gt;23 -->
<g id="edge45" class="edge"><title>21&#45;&gt;23</title>
<path fill="none" stroke="grey" stroke-width="2" d="M297.716,-581.709C327.54,-571.701 372.48,-556.572 420.3,-540.228"/>
<polygon fill="grey" stroke="grey" stroke-width="2" points="421.57,-543.492 429.898,-536.944 419.304,-536.869 421.57,-543.492"/>
</g>
<!-- 22&#45;&gt;6 -->
<g id="edge24" class="edge"><title>22&#45;&gt;6</title>
<path fill="none" stroke="grey" stroke-width="2" d="M228.517,-503.697C227.856,-495.983 227.061,-486.712 226.324,-478.112"/>
<polygon fill="grey" stroke="grey" stroke-width="2" points="229.807,-477.769 225.466,-468.104 222.833,-478.367 229.807,-477.769"/>
</g>
<!-- 22&#45;&gt;7 -->
<g id="edge28" class="edge"><title>22&#45;&gt;7</title>
<path fill="none" stroke="grey" stroke-width="2" d="M270.089,-508.326C274.777,-506.86 279.492,-505.392 284,-504 320.992,-492.576 362.457,-480.008 395.736,-469.978"/>
<polygon fill="grey" stroke="grey" stroke-width="2" points="396.774,-473.321 405.34,-467.086 394.755,-466.618 396.774,-473.321"/>
</g>
<!-- 23&#45;&gt;6 -->
<g id="edge25" class="edge"><title>23&#45;&gt;6</title>
<path fill="none" stroke="grey" stroke-width="2" d="M429.965,-506.85C426.939,-505.861 423.926,-504.9 421,-504 376.873,-490.428 326.607,-476.936 287.895,-466.961"/>
<polygon fill="grey" stroke="grey" stroke-width="2" points="288.363,-463.468 277.807,-464.374 286.624,-470.249 288.363,-463.468"/>
</g>
<!-- 23&#45;&gt;7 -->
<g id="edge29" class="edge"><title>23&#45;&gt;7</title>
<path fill="none" stroke="grey" stroke-width="2" d="M467.281,-503.697C466.069,-495.983 464.612,-486.712 463.261,-478.112"/>
<polygon fill="grey" stroke="grey" stroke-width="2" points="466.698,-477.44 461.688,-468.104 459.783,-478.526 466.698,-477.44"/>
</g>
<!-- 24&#45;&gt;14 -->
<g id="edge38" class="edge"><title>24&#45;&gt;14</title>
<path fill="none" stroke="grey" stroke-width="2" d="M220.506,-359.697C220.285,-351.983 220.02,-342.712 219.775,-334.112"/>
<polygon fill="grey" stroke="grey" stroke-width="2" points="223.273,-334 219.489,-324.104 216.276,-334.2 223.273,-334"/>
</g>
<!-- 25&#45;&gt;15 -->
<g id="edge39" class="edge"><title>25&#45;&gt;15</title>
<path fill="none" stroke="grey" stroke-width="2" d="M452.281,-359.697C451.069,-351.983 449.612,-342.712 448.261,-334.112"/>
<polygon fill="grey" stroke="grey" stroke-width="2" points="451.698,-333.44 446.688,-324.104 444.783,-334.526 451.698,-333.44"/>
</g>
</g>
</svg>
