<?xml version="1.0" encoding="UTF-8" standalone="no"?>
<!DOCTYPE svg PUBLIC "-//W3C//DTD SVG 1.1//EN"
 "http://www.w3.org/Graphics/SVG/1.1/DTD/svg11.dtd">
<!-- Generated by graphviz version 2.38.0 (20140413.2041)
 -->
<!-- Title: snakemake_dag Pages: 1 -->
<svg width="442pt" height="620pt"
 viewBox="0.00 0.00 441.50 620.00" xmlns="http://www.w3.org/2000/svg" xmlns:xlink="http://www.w3.org/1999/xlink">
<g id="graph0" class="graph" transform="scale(1 1) rotate(0) translate(4 616)">
<title>snakemake_dag</title>
<polygon fill="white" stroke="none" points="-4,4 -4,-616 437.5,-616 437.5,4 -4,4"/>
<!-- 0 -->
<g id="node1" class="node"><title>0</title>
<path fill="none" stroke="#56d8d0" stroke-width="2" d="M304.5,-36C304.5,-36 274.5,-36 274.5,-36 268.5,-36 262.5,-30 262.5,-24 262.5,-24 262.5,-12 262.5,-12 262.5,-6 268.5,-0 274.5,-0 274.5,-0 304.5,-0 304.5,-0 310.5,-0 316.5,-6 316.5,-12 316.5,-12 316.5,-24 316.5,-24 316.5,-30 310.5,-36 304.5,-36"/>
<text text-anchor="middle" x="289.5" y="-15.5" font-family="sans" font-size="10.00">all</text>
</g>
<!-- 1 -->
<g id="node2" class="node"><title>1</title>
<path fill="none" stroke="#d8bc56" stroke-width="2" d="M391,-108C391,-108 340,-108 340,-108 334,-108 328,-102 328,-96 328,-96 328,-84 328,-84 328,-78 334,-72 340,-72 340,-72 391,-72 391,-72 397,-72 403,-78 403,-84 403,-84 403,-96 403,-96 403,-102 397,-108 391,-108"/>
<text text-anchor="middle" x="365.5" y="-87.5" font-family="sans" font-size="10.00">VariantFilter</text>
</g>
<!-- 1&#45;&gt;0 -->
<g id="edge1" class="edge"><title>1&#45;&gt;0</title>
<path fill="none" stroke="grey" stroke-width="2" d="M346.713,-71.6966C337.326,-63.0503 325.816,-52.4486 315.587,-43.027"/>
<polygon fill="grey" stroke="grey" stroke-width="2" points="317.797,-40.3047 308.07,-36.1043 313.055,-45.4535 317.797,-40.3047"/>
</g>
<!-- 2 -->
<g id="node3" class="node"><title>2</title>
<path fill="none" stroke="#ced856" stroke-width="2" d="M229,-108C229,-108 198,-108 198,-108 192,-108 186,-102 186,-96 186,-96 186,-84 186,-84 186,-78 192,-72 198,-72 198,-72 229,-72 229,-72 235,-72 241,-78 241,-84 241,-84 241,-96 241,-96 241,-102 235,-108 229,-108"/>
<text text-anchor="middle" x="213.5" y="-87.5" font-family="sans" font-size="10.00">multiQc</text>
</g>
<!-- 2&#45;&gt;0 -->
<g id="edge2" class="edge"><title>2&#45;&gt;0</title>
<path fill="none" stroke="grey" stroke-width="2" d="M232.287,-71.6966C241.674,-63.0503 253.184,-52.4486 263.413,-43.027"/>
<polygon fill="grey" stroke="grey" stroke-width="2" points="265.945,-45.4535 270.93,-36.1043 261.203,-40.3047 265.945,-45.4535"/>
</g>
<!-- 3 -->
<g id="node4" class="node"><title>3</title>
<path fill="none" stroke="#56d8a9" stroke-width="2" d="M421.5,-180C421.5,-180 379.5,-180 379.5,-180 373.5,-180 367.5,-174 367.5,-168 367.5,-168 367.5,-156 367.5,-156 367.5,-150 373.5,-144 379.5,-144 379.5,-144 421.5,-144 421.5,-144 427.5,-144 433.5,-150 433.5,-156 433.5,-156 433.5,-168 433.5,-168 433.5,-174 427.5,-180 421.5,-180"/>
<text text-anchor="middle" x="400.5" y="-159.5" font-family="sans" font-size="10.00">Freebayes</text>
</g>
<!-- 3&#45;&gt;1 -->
<g id="edge3" class="edge"><title>3&#45;&gt;1</title>
<path fill="none" stroke="grey" stroke-width="2" d="M391.848,-143.697C387.864,-135.728 383.05,-126.1 378.632,-117.264"/>
<polygon fill="grey" stroke="grey" stroke-width="2" points="381.655,-115.483 374.052,-108.104 375.394,-118.614 381.655,-115.483"/>
</g>
<!-- 4 -->
<g id="node5" class="node"><title>4</title>
<path fill="none" stroke="#56d88a" stroke-width="2" d="M83,-180C83,-180 12,-180 12,-180 6,-180 0,-174 0,-168 0,-168 0,-156 0,-156 0,-150 6,-144 12,-144 12,-144 83,-144 83,-144 89,-144 95,-150 95,-156 95,-156 95,-168 95,-168 95,-174 89,-180 83,-180"/>
<text text-anchor="middle" x="47.5" y="-159.5" font-family="sans" font-size="10.00">SalmonMapping</text>
</g>
<!-- 4&#45;&gt;2 -->
<g id="edge6" class="edge"><title>4&#45;&gt;2</title>
<path fill="none" stroke="grey" stroke-width="2" d="M88.1082,-143.876C115.122,-132.485 150.325,-117.64 176.552,-106.58"/>
<polygon fill="grey" stroke="grey" stroke-width="2" points="177.922,-109.801 185.777,-102.691 175.202,-103.351 177.922,-109.801"/>
</g>
<!-- 5 -->
<g id="node6" class="node"><title>5</title>
<path fill="none" stroke="#56c1d8" stroke-width="2" d="M172,-540C172,-540 113,-540 113,-540 107,-540 101,-534 101,-528 101,-528 101,-516 101,-516 101,-510 107,-504 113,-504 113,-504 172,-504 172,-504 178,-504 184,-510 184,-516 184,-516 184,-528 184,-528 184,-534 178,-540 172,-540"/>
<text text-anchor="middle" x="142.5" y="-519.5" font-family="sans" font-size="10.00">STARMapping</text>
</g>
<!-- 5&#45;&gt;2 -->
<g id="edge7" class="edge"><title>5&#45;&gt;2</title>
<path fill="none" stroke="grey" stroke-width="2" d="M138.655,-503.612C133.103,-476.942 123.5,-424.268 123.5,-379 123.5,-379 123.5,-379 123.5,-233 123.5,-192.553 120.676,-178.054 142.5,-144 151.132,-130.531 164.468,-119.259 177.262,-110.621"/>
<polygon fill="grey" stroke="grey" stroke-width="2" points="179.419,-113.396 185.968,-105.067 175.655,-107.495 179.419,-113.396"/>
</g>
<!-- 14 -->
<g id="node15" class="node"><title>14</title>
<path fill="none" stroke="#d87556" stroke-width="2" d="M255.5,-468C255.5,-468 169.5,-468 169.5,-468 163.5,-468 157.5,-462 157.5,-456 157.5,-456 157.5,-444 157.5,-444 157.5,-438 163.5,-432 169.5,-432 169.5,-432 255.5,-432 255.5,-432 261.5,-432 267.5,-438 267.5,-444 267.5,-444 267.5,-456 267.5,-456 267.5,-462 261.5,-468 255.5,-468"/>
<text text-anchor="middle" x="212.5" y="-447.5" font-family="sans" font-size="10.00">STARMapping2Pass</text>
</g>
<!-- 5&#45;&gt;14 -->
<g id="edge18" class="edge"><title>5&#45;&gt;14</title>
<path fill="none" stroke="grey" stroke-width="2" d="M159.803,-503.697C168.365,-495.135 178.844,-484.656 188.196,-475.304"/>
<polygon fill="grey" stroke="grey" stroke-width="2" points="190.799,-477.65 195.396,-468.104 185.85,-472.701 190.799,-477.65"/>
</g>
<!-- 6 -->
<g id="node7" class="node"><title>6</title>
<path fill="none" stroke="#88d856" stroke-width="2" d="M265.5,-180C265.5,-180 235.5,-180 235.5,-180 229.5,-180 223.5,-174 223.5,-168 223.5,-168 223.5,-156 223.5,-156 223.5,-150 229.5,-144 235.5,-144 235.5,-144 265.5,-144 265.5,-144 271.5,-144 277.5,-150 277.5,-156 277.5,-156 277.5,-168 277.5,-168 277.5,-174 271.5,-180 265.5,-180"/>
<text text-anchor="middle" x="250.5" y="-159.5" font-family="sans" font-size="10.00">fastqcF</text>
</g>
<!-- 6&#45;&gt;2 -->
<g id="edge5" class="edge"><title>6&#45;&gt;2</title>
<path fill="none" stroke="grey" stroke-width="2" d="M241.354,-143.697C237.097,-135.644 231.944,-125.894 227.234,-116.982"/>
<polygon fill="grey" stroke="grey" stroke-width="2" points="230.308,-115.31 222.541,-108.104 224.12,-118.581 230.308,-115.31"/>
</g>
<!-- 7 -->
<g id="node8" class="node"><title>7</title>
<path fill="none" stroke="#d89c56" stroke-width="2" d="M337.5,-180C337.5,-180 307.5,-180 307.5,-180 301.5,-180 295.5,-174 295.5,-168 295.5,-168 295.5,-156 295.5,-156 295.5,-150 301.5,-144 307.5,-144 307.5,-144 337.5,-144 337.5,-144 343.5,-144 349.5,-150 349.5,-156 349.5,-156 349.5,-168 349.5,-168 349.5,-174 343.5,-180 337.5,-180"/>
<text text-anchor="middle" x="322.5" y="-159.5" font-family="sans" font-size="10.00">fastqcR</text>
</g>
<!-- 7&#45;&gt;2 -->
<g id="edge4" class="edge"><title>7&#45;&gt;2</title>
<path fill="none" stroke="grey" stroke-width="2" d="M295.836,-143.876C281.716,-134.808 264.189,-123.552 248.939,-113.759"/>
<polygon fill="grey" stroke="grey" stroke-width="2" points="250.573,-110.648 240.267,-108.19 246.79,-116.538 250.573,-110.648"/>
</g>
<!-- 8 -->
<g id="node9" class="node"><title>8</title>
<path fill="none" stroke="#567bd8" stroke-width="2" d="M193.5,-180C193.5,-180 163.5,-180 163.5,-180 157.5,-180 151.5,-174 151.5,-168 151.5,-168 151.5,-156 151.5,-156 151.5,-150 157.5,-144 163.5,-144 163.5,-144 193.5,-144 193.5,-144 199.5,-144 205.5,-150 205.5,-156 205.5,-156 205.5,-168 205.5,-168 205.5,-174 199.5,-180 193.5,-180"/>
<text text-anchor="middle" x="178.5" y="-159.5" font-family="sans" font-size="10.00">RSeqC</text>
</g>
<!-- 8&#45;&gt;2 -->
<g id="edge8" class="edge"><title>8&#45;&gt;2</title>
<path fill="none" stroke="grey" stroke-width="2" d="M187.152,-143.697C191.136,-135.728 195.95,-126.1 200.368,-117.264"/>
<polygon fill="grey" stroke="grey" stroke-width="2" points="203.606,-118.614 204.948,-108.104 197.345,-115.483 203.606,-118.614"/>
</g>
<!-- 9 -->
<g id="node10" class="node"><title>9</title>
<path fill="none" stroke="#d85656" stroke-width="2" d="M284.5,-324C284.5,-324 210.5,-324 210.5,-324 204.5,-324 198.5,-318 198.5,-312 198.5,-312 198.5,-300 198.5,-300 198.5,-294 204.5,-288 210.5,-288 210.5,-288 284.5,-288 284.5,-288 290.5,-288 296.5,-294 296.5,-300 296.5,-300 296.5,-312 296.5,-312 296.5,-318 290.5,-324 284.5,-324"/>
<text text-anchor="middle" x="247.5" y="-303.5" font-family="sans" font-size="10.00">mark_duplicates</text>
</g>
<!-- 9&#45;&gt;3 -->
<g id="edge10" class="edge"><title>9&#45;&gt;3</title>
<path fill="none" stroke="grey" stroke-width="2" d="M268.184,-287.913C280.382,-277.69 296.02,-264.328 309.5,-252 332.758,-230.729 358.346,-205.535 376.449,-187.391"/>
<polygon fill="grey" stroke="grey" stroke-width="2" points="379.151,-189.637 383.721,-180.078 374.188,-184.701 379.151,-189.637"/>
</g>
<!-- 9&#45;&gt;8 -->
<g id="edge14" class="edge"><title>9&#45;&gt;8</title>
<path fill="none" stroke="grey" stroke-width="2" d="M226.638,-287.87C216.363,-278.343 204.672,-265.665 197.5,-252 187.434,-232.821 182.701,-208.659 180.475,-190.353"/>
<polygon fill="grey" stroke="grey" stroke-width="2" points="183.948,-189.916 179.433,-180.332 176.986,-190.641 183.948,-189.916"/>
</g>
<!-- 10 -->
<g id="node11" class="node"><title>10</title>
<path fill="none" stroke="#afd856" stroke-width="2" d="M288.5,-252C288.5,-252 218.5,-252 218.5,-252 212.5,-252 206.5,-246 206.5,-240 206.5,-240 206.5,-228 206.5,-228 206.5,-222 212.5,-216 218.5,-216 218.5,-216 288.5,-216 288.5,-216 294.5,-216 300.5,-222 300.5,-228 300.5,-228 300.5,-240 300.5,-240 300.5,-246 294.5,-252 288.5,-252"/>
<text text-anchor="middle" x="253.5" y="-231.5" font-family="sans" font-size="10.00">samtools_index</text>
</g>
<!-- 9&#45;&gt;10 -->
<g id="edge16" class="edge"><title>9&#45;&gt;10</title>
<path fill="none" stroke="grey" stroke-width="2" d="M248.983,-287.697C249.644,-279.983 250.439,-270.712 251.176,-262.112"/>
<polygon fill="grey" stroke="grey" stroke-width="2" points="254.667,-262.367 252.034,-252.104 247.693,-261.769 254.667,-262.367"/>
</g>
<!-- 10&#45;&gt;3 -->
<g id="edge9" class="edge"><title>10&#45;&gt;3</title>
<path fill="none" stroke="grey" stroke-width="2" d="M289.46,-215.876C310.285,-205.96 336.605,-193.426 358.393,-183.051"/>
<polygon fill="grey" stroke="grey" stroke-width="2" points="359.901,-186.21 367.424,-178.75 356.891,-179.89 359.901,-186.21"/>
</g>
<!-- 10&#45;&gt;8 -->
<g id="edge13" class="edge"><title>10&#45;&gt;8</title>
<path fill="none" stroke="grey" stroke-width="2" d="M234.961,-215.697C225.697,-207.05 214.338,-196.449 204.243,-187.027"/>
<polygon fill="grey" stroke="grey" stroke-width="2" points="206.525,-184.369 196.826,-180.104 201.749,-189.486 206.525,-184.369"/>
</g>
<!-- 11 -->
<g id="node12" class="node"><title>11</title>
<path fill="none" stroke="#68d856" stroke-width="2" d="M75.5,-252C75.5,-252 19.5,-252 19.5,-252 13.5,-252 7.5,-246 7.5,-240 7.5,-240 7.5,-228 7.5,-228 7.5,-222 13.5,-216 19.5,-216 19.5,-216 75.5,-216 75.5,-216 81.5,-216 87.5,-222 87.5,-228 87.5,-228 87.5,-240 87.5,-240 87.5,-246 81.5,-252 75.5,-252"/>
<text text-anchor="middle" x="47.5" y="-231.5" font-family="sans" font-size="10.00">SalmonIndex</text>
</g>
<!-- 11&#45;&gt;4 -->
<g id="edge11" class="edge"><title>11&#45;&gt;4</title>
<path fill="none" stroke="grey" stroke-width="2" d="M47.5,-215.697C47.5,-207.983 47.5,-198.712 47.5,-190.112"/>
<polygon fill="grey" stroke="grey" stroke-width="2" points="51.0001,-190.104 47.5,-180.104 44.0001,-190.104 51.0001,-190.104"/>
</g>
<!-- 12 -->
<g id="node13" class="node"><title>12</title>
<path fill="none" stroke="#56d86b" stroke-width="2" d="M199.5,-612C199.5,-612 155.5,-612 155.5,-612 149.5,-612 143.5,-606 143.5,-600 143.5,-600 143.5,-588 143.5,-588 143.5,-582 149.5,-576 155.5,-576 155.5,-576 199.5,-576 199.5,-576 205.5,-576 211.5,-582 211.5,-588 211.5,-588 211.5,-600 211.5,-600 211.5,-606 205.5,-612 199.5,-612"/>
<text text-anchor="middle" x="177.5" y="-591.5" font-family="sans" font-size="10.00">STARIndex</text>
</g>
<!-- 12&#45;&gt;5 -->
<g id="edge12" class="edge"><title>12&#45;&gt;5</title>
<path fill="none" stroke="grey" stroke-width="2" d="M168.848,-575.697C164.864,-567.728 160.05,-558.1 155.632,-549.264"/>
<polygon fill="grey" stroke="grey" stroke-width="2" points="158.655,-547.483 151.052,-540.104 152.394,-550.614 158.655,-547.483"/>
</g>
<!-- 12&#45;&gt;14 -->
<g id="edge19" class="edge"><title>12&#45;&gt;14</title>
<path fill="none" stroke="grey" stroke-width="2" d="M182.603,-575.878C185.623,-565.529 189.443,-552.05 192.5,-540 197.724,-519.406 202.965,-495.955 206.771,-478.297"/>
<polygon fill="grey" stroke="grey" stroke-width="2" points="210.277,-478.638 208.942,-468.128 203.431,-477.177 210.277,-478.638"/>
</g>
<!-- 13 -->
<g id="node14" class="node"><title>13</title>
<path fill="none" stroke="#569ad8" stroke-width="2" d="M246.5,-396C246.5,-396 202.5,-396 202.5,-396 196.5,-396 190.5,-390 190.5,-384 190.5,-384 190.5,-372 190.5,-372 190.5,-366 196.5,-360 202.5,-360 202.5,-360 246.5,-360 246.5,-360 252.5,-360 258.5,-366 258.5,-372 258.5,-372 258.5,-384 258.5,-384 258.5,-390 252.5,-396 246.5,-396"/>
<text text-anchor="middle" x="224.5" y="-375.5" font-family="sans" font-size="10.00">replace_rg</text>
</g>
<!-- 13&#45;&gt;9 -->
<g id="edge15" class="edge"><title>13&#45;&gt;9</title>
<path fill="none" stroke="grey" stroke-width="2" d="M230.185,-359.697C232.748,-351.898 235.833,-342.509 238.685,-333.829"/>
<polygon fill="grey" stroke="grey" stroke-width="2" points="242.084,-334.697 241.88,-324.104 235.433,-332.512 242.084,-334.697"/>
</g>
<!-- 14&#45;&gt;13 -->
<g id="edge17" class="edge"><title>14&#45;&gt;13</title>
<path fill="none" stroke="grey" stroke-width="2" d="M215.466,-431.697C216.789,-423.983 218.378,-414.712 219.852,-406.112"/>
<polygon fill="grey" stroke="grey" stroke-width="2" points="223.328,-406.552 221.568,-396.104 216.428,-405.369 223.328,-406.552"/>
</g>
</g>
</svg>
